<?xml version="1.0" encoding="utf-8"?>
<!-- Generator: Adobe Illustrator 17.0.0, SVG Export Plug-In . SVG Version: 6.00 Build 0)  -->
<!DOCTYPE svg PUBLIC "-//W3C//DTD SVG 1.1//EN" "http://www.w3.org/Graphics/SVG/1.1/DTD/svg11.dtd">
<svg version="1.1" id="Layer_1" xmlns="http://www.w3.org/2000/svg" xmlns:xlink="http://www.w3.org/1999/xlink" x="0px" y="0px"
	 width="144.778px" height="43.98px" viewBox="0 0 144.778 43.98" enable-background="new 0 0 144.778 43.98" xml:space="preserve">
<g>
	<path fill="currentColor" d="M0,0l6.12,12.24H0.9v1.08h5.76l1.02,1.98H0.9v1.08h7.32l0.96,1.98H0.9v1.08h8.82l1.02,1.98H0.9v1.08h10.38l0.96,2.04H7.56
		h-7.2v7.2v12.24h1.08V31.74h6.12v-6.12h5.22h0.36c1.76,0,3.42-0.339,4.98-1.02c1.56-0.68,2.919-1.599,4.08-2.76
		c1.16-1.16,2.07-2.52,2.73-4.08c0.66-1.56,0.99-3.219,0.99-4.98c0-1.76-0.33-3.41-0.99-4.95c-0.66-1.539-1.57-2.889-2.73-4.05
		c-1.161-1.16-2.52-2.079-4.08-2.76C16.56,0.34,14.9,0,13.14,0H0z M6.48,30.66H1.44v-5.04h5.04V30.66z M1.74,1.08h11.4
		c1.599,0,3.12,0.31,4.56,0.93c1.44,0.621,2.679,1.461,3.72,2.52c1.04,1.06,1.869,2.301,2.49,3.72c0.62,1.42,0.93,2.931,0.93,4.53
		c0,1.6-0.3,3.1-0.9,4.5c-0.6,1.401-1.41,2.631-2.43,3.69c-1.02,1.06-2.22,1.9-3.6,2.52c-1.38,0.621-2.871,0.951-4.47,0.99
		L1.74,1.08z"/>
	<path fill="currentColor" d="M42.12,25.62v-7.2h-3.06v-6.6h1.74v-1.08h-1.74V1.08h2.52V0h-6.12v1.08h2.52v9.66h-1.74v1.08h1.74v6.6h-3.06v7.2h3.06v6.6
		h-1.74v1.08h1.74v9.6h-2.52v1.08h6.12V42.9h-2.52v-9.6h1.74v-1.08h-1.74v-6.6H42.12z M39.06,24.54v-1.98h1.98v1.98H39.06z
		 M41.04,19.5v1.98h-1.98V19.5H41.04z M37.98,19.5v1.98H36V19.5H37.98z M36,24.54v-1.98h1.98v1.98H36z"/>
	<path fill="currentColor" d="M64.499,25.44v-5.76l12.36-18.6h-1.32l-7.8,11.76h-15.54V1.08h-1.08v17.88v7.2v17.82h1.08v-11.7h15.54l7.8,11.7h1.32
		L64.499,25.44z M52.199,13.92h14.82l-3.6,5.4v2.7h-1.98V19.5h-1.08v2.52h-1.98v-3.06h-6.18V13.92z M52.199,20.04h5.1v5.04h-5.1
		V20.04z M52.199,31.2v-5.04h6.18V23.1h1.98v2.52h1.08V23.1h1.98v2.7l3.6,5.4H52.199z"/>
	<path fill="currentColor" d="M98.638,1.08h11.7V0h-24.48v1.08h11.7V12.6l-3.3,3.3l6.12,6.12l-2.82,2.82v19.14h1.08V25.32l3.3-3.3l-6.12-6.12l2.82-2.88
		V1.08z"/>
	<path fill="currentColor" d="M120.778,42.9V31.68h11.76V30.6h-11.76v-1.98h11.76v-1.08h-11.76v-1.98h11.76v-1.08h-11.76V22.5h11.76v-1.08h-11.76v-1.98
		h11.76v-1.08h-11.76v-1.98h11.76V15.3h-11.76v-1.98h11.76v-1.08h-5.1l-6.24-11.16h20.52V0h-22.38l6.9,12.24h-6.54v31.74h25.08V42.9
		H120.778z"/>
</g>
</svg>
