<?xml version="1.0" encoding="utf-8"?>
<!-- Generator: Adobe Illustrator 17.0.0, SVG Export Plug-In . SVG Version: 6.00 Build 0)  -->
<!DOCTYPE svg PUBLIC "-//W3C//DTD SVG 1.1//EN" "http://www.w3.org/Graphics/SVG/1.1/DTD/svg11.dtd">
<svg version="1.1" id="Layer_1" xmlns="http://www.w3.org/2000/svg" xmlns:xlink="http://www.w3.org/1999/xlink" x="0px" y="0px"
	 width="24px" height="14px" viewBox="0 0 24 14" enable-background="new 0 0 24 14" xml:space="preserve">
<path fill="currentColor" d="M22.875,8.105H1.125C0.504,8.105,0,7.61,0,7c0-0.611,0.504-1.105,1.125-1.105
	h21.75C23.496,5.895,24,6.389,24,7C24,7.61,23.496,8.105,22.875,8.105z M22.875,2.211H1.125C0.504,2.211,0,1.716,0,1.105
	C0,0.495,0.504,0,1.125,0h21.75C23.496,0,24,0.495,24,1.105C24,1.716,23.496,2.211,22.875,2.211z M1.125,11.789h21.75
	c0.621,0,1.125,0.495,1.125,1.105C24,13.505,23.496,14,22.875,14H1.125C0.504,14,0,13.505,0,12.895
	C0,12.284,0.504,11.789,1.125,11.789z"/>
</svg>
