<?xml version="1.0" encoding="utf-8"?>
<!-- Generator: Adobe Illustrator 17.0.0, SVG Export Plug-In . SVG Version: 6.00 Build 0)  -->
<!DOCTYPE svg PUBLIC "-//W3C//DTD SVG 1.1//EN" "http://www.w3.org/Graphics/SVG/1.1/DTD/svg11.dtd">
<svg version="1.1" id="Layer_1" xmlns="http://www.w3.org/2000/svg" xmlns:xlink="http://www.w3.org/1999/xlink" x="0px" y="0px"
	 width="9px" height="16px" viewBox="0 0 9 16" enable-background="new 0 0 9 16" xml:space="preserve">
<path fill="currentColor" d="M0.392,2.01l5.894,5.988l-5.971,6.066l0,0
	C0.12,14.27,0,14.549,0,14.857C0,15.488,0.504,16,1.125,16c0.303,0,0.578-0.122,0.781-0.321l0,0l6.75-6.857l0,0
	C8.868,8.615,9,8.323,9,8c0-0.001,0-0.002,0-0.003c0-0.001,0-0.002,0-0.003C9,7.672,8.868,7.38,8.656,7.173l0,0l-6.75-6.857
	L1.903,0.318C1.701,0.121,1.427,0,1.125,0C0.504,0,0,0.512,0,1.143C0,1.49,0.152,1.8,0.392,2.01z"/>
</svg>
