<?xml version="1.0" encoding="utf-8"?>
<!-- Generator: Adobe Illustrator 17.0.0, SVG Export Plug-In . SVG Version: 6.00 Build 0)  -->
<!DOCTYPE svg PUBLIC "-//W3C//DTD SVG 1.1//EN" "http://www.w3.org/Graphics/SVG/1.1/DTD/svg11.dtd">
<svg version="1.1" id="Layer_1" xmlns="http://www.w3.org/2000/svg" xmlns:xlink="http://www.w3.org/1999/xlink" x="0px" y="0px"
	 width="32.003px" height="26.002px" viewBox="0 0 32.003 26.002" enable-background="new 0 0 32.003 26.002" xml:space="preserve">
<path fill="currentColor" d="M13.742,12.94H7.206v-1.762c0-3.921,1.341-5.823,4.103-5.823c0.283,0,0.511-0.231,0.511-0.513V0.513
	C11.82,0.23,11.592,0,11.308,0C7.825,0,5.038,1.107,3.021,3.292C1.017,5.461,0,9.248,0,14.544v10.945
	c0,0.285,0.228,0.512,0.511,0.512h13.231c0.283,0,0.511-0.228,0.511-0.512V13.452C14.254,13.168,14.026,12.94,13.742,12.94z"/>
<path fill="currentColor" d="M31.493,12.94h-6.538v-1.762c0-3.921,1.343-5.823,4.103-5.823c0.284,0,0.513-0.231,0.513-0.513V0.513
	C29.571,0.23,29.341,0,29.058,0c-3.454,0-6.234,1.107-8.262,3.29c-2.021,2.171-3.045,5.959-3.045,11.254v10.945
	c0,0.285,0.228,0.512,0.51,0.512h13.232c0.282,0,0.51-0.228,0.51-0.512V13.452C32.003,13.168,31.775,12.94,31.493,12.94z"/>
</svg>
