<?xml version="1.0" encoding="utf-8"?>
<!-- Generator: Adobe Illustrator 17.0.0, SVG Export Plug-In . SVG Version: 6.00 Build 0)  -->
<!DOCTYPE svg PUBLIC "-//W3C//DTD SVG 1.1//EN" "http://www.w3.org/Graphics/SVG/1.1/DTD/svg11.dtd">
<svg version="1.1" id="Layer_1" xmlns="http://www.w3.org/2000/svg" xmlns:xlink="http://www.w3.org/1999/xlink" x="0px" y="0px"
	 width="32.003px" height="26.002px" viewBox="0 0 32.003 26.002" enable-background="new 0 0 32.003 26.002" xml:space="preserve">
<path fill="currentColor" d="M18.261,13.063h6.537v1.761c0,3.921-1.341,5.823-4.103,5.823c-0.283,0-0.511,0.23-0.511,0.514v4.328
	c0,0.283,0.228,0.513,0.511,0.513c3.483,0,6.271-1.107,8.287-3.292c2.004-2.169,3.021-5.956,3.021-11.252V0.513
	C32.003,0.228,31.775,0,31.492,0H18.261c-0.283,0-0.511,0.228-0.511,0.513V12.55C17.75,12.834,17.978,13.063,18.261,13.063z"/>
<path fill="currentColor" d="M0.51,13.063h6.538v1.761c0,3.921-1.343,5.823-4.103,5.823c-0.283,0-0.513,0.23-0.513,0.514v4.328
	c0,0.283,0.229,0.513,0.513,0.513c3.454,0,6.234-1.107,8.262-3.29c2.021-2.171,3.045-5.958,3.045-11.254V0.513
	c0-0.285-0.228-0.513-0.51-0.513H0.51C0.228,0,0,0.228,0,0.513V12.55C0,12.834,0.228,13.063,0.51,13.063z"/>
</svg>
