<?xml version="1.0" encoding="utf-8"?>
<!-- Generator: Adobe Illustrator 17.0.0, SVG Export Plug-In . SVG Version: 6.00 Build 0)  -->
<!DOCTYPE svg PUBLIC "-//W3C//DTD SVG 1.1//EN" "http://www.w3.org/Graphics/SVG/1.1/DTD/svg11.dtd">
<svg version="1.1" id="Layer_1" xmlns="http://www.w3.org/2000/svg" xmlns:xlink="http://www.w3.org/1999/xlink" x="0px" y="0px"
	 width="22px" height="18px" viewBox="0 0 22 18" enable-background="new 0 0 22 18" xml:space="preserve">
<path fill="currentColor" d="M21.907,3.963l0.002,0.001l-3.094,7.059h0c-0.153,0.348-0.483,0.595-0.872,0.622v0
	l-8.91,0.61l0.515,1.51h9.701c1.139,0,2.063,0.948,2.063,2.117c0,1.17-0.923,2.118-2.063,2.118c-1.139,0-2.063-0.948-2.063-2.118
	H7.563C7.563,17.052,6.639,18,5.5,18s-2.063-0.948-2.063-2.118c0-1.169,0.923-2.117,2.063-2.117h1.864L3.393,2.118H1.031
	C0.462,2.118,0,1.644,0,1.059C0,0.474,0.462,0,1.031,0h3.094c0.45,0,0.829,0.298,0.97,0.711l0.004-0.001l0.601,1.762h15.27
	C21.538,2.471,22,2.945,22,3.53C22,3.684,21.966,3.831,21.907,3.963z M6.421,4.589l1.906,5.592l8.862-0.607l2.185-4.986H6.421z"/>
</svg>
