<?xml version="1.0" encoding="utf-8"?>
<!-- Generator: Adobe Illustrator 17.0.0, SVG Export Plug-In . SVG Version: 6.00 Build 0)  -->
<!DOCTYPE svg PUBLIC "-//W3C//DTD SVG 1.1//EN" "http://www.w3.org/Graphics/SVG/1.1/DTD/svg11.dtd">
<svg version="1.1" id="Layer_1" xmlns="http://www.w3.org/2000/svg" xmlns:xlink="http://www.w3.org/1999/xlink" x="0px" y="0px"
	 width="207.997px" height="256px" viewBox="0 0 207.997 256" enable-background="new 0 0 207.997 256" xml:space="preserve">
<g id="Path_102_">
	<g>
		<path fill-rule="evenodd" clip-rule="evenodd" fill="#B25900" d="M131.777,149.886l-18.239,36.534H98.452
			C106.741,231.724,80.534,256,80.534,256l69.344-0.107C130.079,231.771,131.777,149.886,131.777,149.886z"/>
	</g>
</g>
<g id="Path_103_">
	<g>
		<path fill-rule="evenodd" clip-rule="evenodd" fill="#00BFC0" d="M119.822,88.687c-8.578,19.725-4.547,46.411-4.547,46.411
			c11.854-3.991,21.714-15.654,21.714-15.654c9.626-13.154,16.502-33.052,16.502-33.052c-3.91,28.278-11.291,37.402-11.291,37.402
			c-7.763,9.647-21.713,15.654-21.713,15.654c19.774,4.705,34.741-5.216,34.741-5.216c14.791-7.259,17.371-29.574,17.371-29.574
			l14.765-54.797C124.482,62.383,119.822,88.687,119.822,88.687z"/>
	</g>
</g>
<g id="Path_104_">
	<g>
		<path fill-rule="evenodd" clip-rule="evenodd" fill="#48CEBB" d="M119.083,31.533c-4.591,10.58-2.433,24.884-2.433,24.884
			c6.343-2.14,11.62-8.391,11.62-8.391c5.152-7.051,8.831-17.72,8.831-17.72c-2.093,15.159-6.042,20.051-6.042,20.051
			c-4.154,5.173-11.62,8.393-11.62,8.393c10.582,2.521,18.592-2.798,18.592-2.798c7.915-3.893,9.295-15.854,9.295-15.854
			l7.902-29.378C121.577,17.435,119.083,31.533,119.083,31.533z"/>
	</g>
</g>
<g id="Path_105_">
	<g>
		<path fill-rule="evenodd" clip-rule="evenodd" fill="#00BFC0" d="M169.518,142.093c-7.625,3.706-13.422,12.841-13.422,12.841
			c4.521,1.903,10.473,0.946,10.473,0.946c6.269-1.473,13.464-5.718,13.464-5.718c-8.498,7.581-13.064,8.419-13.064,8.419
			c-4.816,0.898-10.49-0.95-10.49-0.95c4.576,6.68,11.612,7.612,11.612,7.612c6.303,1.71,12.894-4.474,12.894-4.474l18.538-12.821
			C177.656,135.424,169.518,142.093,169.518,142.093z"/>
	</g>
</g>
<g id="Path_106_">
	<g>
		<path fill-rule="evenodd" clip-rule="evenodd" fill="#00BFC0" d="M163.177,29.198c-4.208,3.896-6.332,10.992-6.332,10.992
			c3.242,0.361,6.916-1.455,6.916-1.455c3.792-2.218,7.662-6.432,7.662-6.432c-4.097,6.675-6.91,8.14-6.91,8.14
			c-2.961,1.554-6.954,1.45-6.954,1.45c4.149,3.553,8.917,2.781,8.917,2.781c4.468-0.102,7.61-5.575,7.61-5.575l9.611-12.172
			C167.161,23.338,163.177,29.198,163.177,29.198z"/>
	</g>
</g>
<g id="Path_107_">
	<g>
		<path fill-rule="evenodd" clip-rule="evenodd" fill="#48CEBB" d="M187.478,108.646c-4.208,3.896-6.332,10.99-6.332,10.99
			c3.242,0.363,6.916-1.453,6.916-1.453c3.791-2.216,7.662-6.432,7.662-6.432c-4.097,6.675-6.91,8.142-6.91,8.142
			c-2.961,1.551-6.954,1.447-6.954,1.447c4.148,3.553,8.917,2.781,8.917,2.781c4.468-0.101,7.61-5.574,7.61-5.574l9.611-12.172
			C191.461,102.787,187.478,108.646,187.478,108.646z"/>
	</g>
</g>
<g id="Path_108_">
	<g>
		<path fill-rule="evenodd" clip-rule="evenodd" fill="#00BFC0" d="M19.935,111.563c0,0,3.674,1.814,6.917,1.453
			c0,0-2.123-7.094-6.332-10.99c0,0-3.983-5.861-20.52-2.273l9.611,12.174c0,0,3.142,5.471,7.61,5.574c0,0,4.768,0.771,8.917-2.781
			c0,0-3.993,0.104-6.954-1.45c0,0-2.813-1.464-6.91-8.14C12.273,105.13,16.144,109.345,19.935,111.563z"/>
	</g>
</g>
<g id="Path_109_">
	<g>
		<path fill-rule="evenodd" clip-rule="evenodd" fill="#00BFC0" d="M110.605,14.542L104.996,0
			C93.318,12.654,96.35,19.09,96.35,19.09c1.209,5.644,6.279,11.079,6.279,11.079c1.993-2.652,2.316-6.78,2.316-6.78
			c0.034-4.436-1.628-9.942-1.628-9.942c3.685,6.947,3.503,10.146,3.503,10.146c-0.182,3.371-2.34,6.811-2.34,6.811
			c5.234-1.839,7.033-6.397,7.033-6.397C113.736,20.049,110.605,14.542,110.605,14.542z"/>
	</g>
</g>
<g id="Path_110_">
	<g>
		<path fill-rule="evenodd" clip-rule="evenodd" fill="#48CEBB" d="M54.848,163.435c0,0-6.208-2.383-16.174-15.12
			c0,0,9.044,7.809,17.514,11.533c0,0,8.176,2.937,15.208,1.557c0,0-5.525-14.311-15.434-21.63c0,0-9.873-11.771-44.212,0.263
			l22.836,22.57c0,0,7.57,10.072,16.814,9.508c0,0,10.135,0.672,18.616-7.117C70.016,165,61.4,165.968,54.848,163.435z"/>
	</g>
</g>
<g id="Path_111_">
	<g>
		<path fill-rule="evenodd" clip-rule="evenodd" fill="#00BFC0" d="M102.901,87.383c0,0,5.269-19.29,0.641-34.646
			c0,0-1.173-19.835-46.458-35.058l6.172,41.801c0,0-0.018,16.695,10.263,23.456c0,0,10.182,8.74,25.166,7.155
			c0,0-9.768-5.759-14.662-13.607c0,0-4.657-7.431-5.107-28.647c0,0,3.357,15.323,9.323,25.935
			C88.239,73.772,94.504,83.311,102.901,87.383z"/>
	</g>
</g>
<g id="Path_112_">
	<g>
		<path fill-rule="evenodd" clip-rule="evenodd" fill="#48CEBB" d="M48.674,62.98c0,0,3.028-11.091,0.368-19.924
			c0,0-0.674-11.404-26.7-20.158l3.547,24.037c0,0-0.011,9.6,5.898,13.488c0,0,5.851,5.026,14.463,4.115c0,0-5.614-3.31-8.427-7.826
			c0,0-2.676-4.27-2.935-16.475c0,0,1.93,8.817,5.358,14.918C40.247,55.155,43.848,60.638,48.674,62.98z"/>
	</g>
</g>
<g id="Path_113_">
	<g>
		<path fill-rule="evenodd" clip-rule="evenodd" fill="#00BFC0" d="M102.169,166.412c0,0,4.031-26.688-4.547-46.412
			c0,0-4.659-26.302-67.542-38.826l14.765,54.797c0,0,2.579,22.315,17.371,29.574c0,0,14.967,9.921,34.741,5.217
			c0,0-13.95-6.008-21.713-15.655c0,0-7.38-9.127-11.291-37.403c0,0,6.876,19.9,16.502,33.052
			C80.456,150.757,90.316,162.421,102.169,166.412z"/>
	</g>
</g>
<g id="Path_114_">
	<g>
		<path fill-rule="evenodd" clip-rule="evenodd" fill="#C76300" d="M130.645,150.845c-9.005,22.052-17.277,36.743-17.277,36.743
			c13.063,11.548,24.3,37.515,24.3,37.515C127.784,195.085,130.645,150.845,130.645,150.845z"/>
	</g>
</g>
<g>
</g>
<g>
</g>
<g>
</g>
<g>
</g>
<g>
</g>
<g>
</g>
</svg>
