<?xml version="1.0" encoding="utf-8"?>
<!-- Generator: Adobe Illustrator 17.0.0, SVG Export Plug-In . SVG Version: 6.00 Build 0)  -->
<!DOCTYPE svg PUBLIC "-//W3C//DTD SVG 1.1//EN" "http://www.w3.org/Graphics/SVG/1.1/DTD/svg11.dtd">
<svg version="1.1" id="Layer_1" xmlns="http://www.w3.org/2000/svg" xmlns:xlink="http://www.w3.org/1999/xlink" x="0px" y="0px"
	 width="268px" height="256.001px" viewBox="0 0 268 256.001" enable-background="new 0 0 268 256.001" xml:space="preserve">
<g id="Path_121_">
	<g>
		<polygon fill-rule="evenodd" clip-rule="evenodd" fill="#E0E0D0" points="216.544,12.907 51.456,12.907 2.144,90.352 
			47.168,118.318 62.176,92.505 62.176,256.001 201.536,256.001 201.536,92.505 227.264,122.622 268,94.655 		"/>
	</g>
</g>
<g id="Path_122_">
	<g>
		<polygon fill-rule="evenodd" clip-rule="evenodd" fill="#C1C1B3" points="177.952,21.512 169.376,17.209 137.216,83.899 
			167.232,66.688 180.096,70.991 201.536,38.723 		"/>
	</g>
</g>
<g id="Path_123_">
	<g>
		<polygon fill-rule="evenodd" clip-rule="evenodd" fill="#FFFFFF" points="98.624,12.907 137.216,83.899 169.376,12.907 		"/>
	</g>
</g>
<g id="Path_124_">
	<g>
		<path fill-rule="evenodd" clip-rule="evenodd" fill="#FF5C26" d="M171.52,0H92.192L72.896,23.664l21.44,32.267l15.008-8.603
			c0,0,25.728,36.572,27.872,36.572c2.144,0,23.584-36.572,23.584-36.572l17.152,6.455l15.008-32.27L171.52,0z"/>
	</g>
</g>
<g id="Path_125_">
	<g>
		<polygon fill-rule="evenodd" clip-rule="evenodd" fill="#BE441B" points="90.048,0 137.216,75.294 171.52,0 		"/>
	</g>
</g>
<g id="Path_126_">
	<g>
		<polygon fill-rule="evenodd" clip-rule="evenodd" fill="#FF5C26" points="1.072,64.537 2.144,90.352 47.168,118.318 53.6,107.562 
					"/>
	</g>
</g>
<g id="Path_127_">
	<g>
		<polygon fill-rule="evenodd" clip-rule="evenodd" fill="#FF5C26" points="267.464,71.529 220.832,114.017 227.264,122.622 
			268,94.655 		"/>
	</g>
</g>
<g id="Path_128_">
	<g>
		<polygon fill-rule="evenodd" clip-rule="evenodd" fill="#FF5C26" points="49.848,233.949 62.176,256.001 201.536,256.001 
			213.864,233.949 		"/>
	</g>
</g>
<g id="Path_129_">
	<g>
		<polygon fill-rule="evenodd" clip-rule="evenodd" fill="#BE441B" points="0,64.537 12.864,73.141 19.296,62.388 		"/>
	</g>
</g>
<g id="Path_130_">
	<g>
		<polygon fill-rule="evenodd" clip-rule="evenodd" fill="#BE441B" points="250.848,68.841 257.28,79.596 268,73.141 		"/>
	</g>
</g>
<g id="Path_131_">
	<g>
		<polygon fill-rule="evenodd" clip-rule="evenodd" fill="#BE441B" points="49.312,234.487 62.176,234.487 62.176,219.428 		"/>
	</g>
</g>
<g id="Path_132_">
	<g>
		<polygon fill-rule="evenodd" clip-rule="evenodd" fill="#BE441B" points="201.536,217.278 201.536,234.487 214.4,234.487 		"/>
	</g>
</g>
<g id="Path_133_">
	<g>
		<polygon fill-rule="evenodd" clip-rule="evenodd" fill="#C1C1B3" points="214.4,60.235 201.536,94.655 220.832,114.017 		"/>
	</g>
</g>
<g id="Path_134_">
	<g>
		<polygon fill-rule="evenodd" clip-rule="evenodd" fill="#C1C1B3" points="60.032,58.083 49.312,101.109 53.6,107.562 
			62.176,92.505 		"/>
	</g>
</g>
<g id="Path_135_">
	<g>
		<polygon fill-rule="evenodd" clip-rule="evenodd" fill="#A33815" points="90.048,0 98.624,15.059 165.088,15.059 171.52,0 		"/>
	</g>
</g>
<g>
</g>
<g>
</g>
<g>
</g>
<g>
</g>
<g>
</g>
<g>
</g>
</svg>
