<?xml version="1.0" encoding="utf-8"?>
<!-- Generator: Adobe Illustrator 17.0.0, SVG Export Plug-In . SVG Version: 6.00 Build 0)  -->
<!DOCTYPE svg PUBLIC "-//W3C//DTD SVG 1.1//EN" "http://www.w3.org/Graphics/SVG/1.1/DTD/svg11.dtd">
<svg version="1.1" id="Layer_1" xmlns="http://www.w3.org/2000/svg" xmlns:xlink="http://www.w3.org/1999/xlink" x="0px" y="0px"
	 width="184px" height="255.999px" viewBox="0 0 184 255.999" enable-background="new 0 0 184 255.999" xml:space="preserve">
<g id="Path_115_">
	<g>
		<polygon fill-rule="evenodd" clip-rule="evenodd" fill="#FF4D4D" points="120.946,0 12.816,152.336 85.501,195.279 
			165.824,27.394 		"/>
	</g>
</g>
<g id="Path_116_">
	<g>
		<path fill-rule="evenodd" clip-rule="evenodd" fill="#555555" d="M107.555,11.248c0,0-24.983,33.388-24.579,33.909
			c0.274,0.349,63.896,38.206,63.896,38.206l13.84-27.35l10.025,5.924l-34.472,71.483l10.025,5.925L184,56.413L107.555,11.248z"/>
	</g>
</g>
<g id="Path_117_">
	<g>
		<polygon fill-rule="evenodd" clip-rule="evenodd" fill="#555555" points="12.816,152.336 3.666,165.301 78.857,209.723 
			85.501,195.279 		"/>
	</g>
</g>
<g id="Path_118_">
	<g>
		<path fill-rule="evenodd" clip-rule="evenodd" fill="#626262" d="M2.412,164.56c18.89,36.21-1.147,66.12-1.147,66.12
			l21.304,12.586c16.512-28.653,55.034-34.283,55.034-34.283L2.412,164.56z"/>
	</g>
</g>
<g id="Path_119_">
	<g>
		<polygon fill-rule="evenodd" clip-rule="evenodd" fill="#FFC926" points="5.025,232.906 0,241.625 10.195,255.999 18.81,241.047 
					"/>
	</g>
</g>
<g id="Path_120_">
	<g>
		<polygon fill-rule="evenodd" clip-rule="evenodd" fill="#EA4545" points="86.736,47.377 116.179,131.418 143.129,80.695 		"/>
	</g>
</g>
<g id="Rectangle_3_">
	<g>
		<polygon fill-rule="evenodd" clip-rule="evenodd" fill="#777777" points="22.85,158.258 14.953,171.962 33.751,183.068 
			41.648,169.366 		"/>
	</g>
</g>
<g>
</g>
<g>
</g>
<g>
</g>
<g>
</g>
<g>
</g>
<g>
</g>
</svg>
