<?xml version="1.0" encoding="UTF-8"?><!DOCTYPE svg PUBLIC "-//W3C//DTD SVG 1.1//EN" "http://www.w3.org/Graphics/SVG/1.1/DTD/svg11.dtd"><svg xmlns="http://www.w3.org/2000/svg"><symbol id="svg-logo" viewBox="0 0 144.778 43.98"><g fill="currentColor"><path d="M0 0l6.12 12.24H.9v1.08h5.76l1.02 1.98H.9v1.08h7.32l.96 1.98H.9v1.08h8.82l1.02 1.98H.9v1.08h10.38l.96 2.04H.36v19.44h1.08V31.74h6.12v-6.12h5.58c1.76 0 3.42-.34 4.98-1.02 1.56-.68 2.92-1.6 4.08-2.76 1.16-1.16 2.07-2.52 2.73-4.08.66-1.56.99-3.22.99-4.98 0-1.76-.33-3.41-.99-4.95-.66-1.54-1.57-2.89-2.73-4.05-1.16-1.16-2.52-2.08-4.08-2.76C16.56.34 14.9 0 13.14 0H0zm6.48 30.66H1.44v-5.04h5.04v5.04zM1.74 1.08h11.4c1.6 0 3.12.31 4.56.93 1.44.62 2.68 1.46 3.72 2.52s1.87 2.3 2.49 3.72c.62 1.42.93 2.93.93 4.53s-.3 3.1-.9 4.5c-.6 1.4-1.41 2.63-2.43 3.69-1.02 1.06-2.22 1.9-3.6 2.52-1.38.62-2.87.95-4.47.99L1.74 1.08zM42.12 25.62v-7.2h-3.06v-6.6h1.74v-1.08h-1.74V1.08h2.52V0h-6.12v1.08h2.52v9.66h-1.74v1.08h1.74v6.6h-3.06v7.2h3.06v6.6h-1.74v1.08h1.74v9.6h-2.52v1.08h6.12V42.9h-2.52v-9.6h1.74v-1.08h-1.74v-6.6h3.06zm-3.06-1.08v-1.98h1.98v1.98h-1.98zm1.98-5.04v1.98h-1.98V19.5h1.98zm-3.06 0v1.98H36V19.5h1.98zM36 24.54v-1.98h1.98v1.98H36zM64.5 25.44v-5.76l12.36-18.6h-1.32l-7.8 11.76H52.2V1.08h-1.08v42.9h1.08v-11.7h15.54l7.8 11.7h1.32L64.5 25.44zM52.2 13.92h14.82l-3.6 5.4v2.7h-1.98V19.5h-1.08v2.52h-1.98v-3.06H52.2v-5.04zm0 6.12h5.1v5.04h-5.1v-5.04zm0 11.16v-5.04h6.18V23.1h1.98v2.52h1.08V23.1h1.98v2.7l3.6 5.4H52.2zM98.638 1.08h11.7V0h-24.48v1.08h11.7V12.6l-3.3 3.3 6.12 6.12-2.82 2.82v19.14h1.08V25.32l3.3-3.3-6.12-6.12 2.82-2.88V1.08zM120.778 42.9V31.68h11.76V30.6h-11.76v-1.98h11.76v-1.08h-11.76v-1.98h11.76v-1.08h-11.76V22.5h11.76v-1.08h-11.76v-1.98h11.76v-1.08h-11.76v-1.98h11.76V15.3h-11.76v-1.98h11.76v-1.08h-5.1l-6.24-11.16h20.52V0h-22.38l6.9 12.24h-6.54v31.74h25.08V42.9h-24z"/></g></symbol><symbol id="svg-mail" viewBox="0 0 32 32"><path fill="currentColor" d="M0 4v24h32V4H0zm28.15 2l-12.152 9.72L3.85 6h24.3zM2 26V7.08L15.998 18.28l14-11.197V26H2z"/></symbol><symbol id="svg-menu" viewBox="0 0 24 14"><path fill="currentColor" d="M22.875 8.105H1.125C.505 8.105 0 7.61 0 7s.504-1.105 1.125-1.105h21.75C23.495 5.895 24 6.39 24 7c0 .61-.504 1.105-1.125 1.105zm0-5.894H1.125C.505 2.21 0 1.717 0 1.106 0 .495.504 0 1.125 0h21.75C23.495 0 24 .495 24 1.105s-.504 1.106-1.125 1.106zm-21.75 9.58h21.75c.62 0 1.125.494 1.125 1.104 0 .61-.504 1.106-1.125 1.106H1.125C.505 14 0 13.505 0 12.895s.504-1.106 1.125-1.106z"/></symbol><symbol id="svg-products_slider_left" viewBox="0 0 9 16"><path fill="currentColor" d="M8.608 2.01L2.714 7.997l5.97 6.066c.196.207.316.486.316.794C9 15.487 8.496 16 7.875 16c-.303 0-.578-.122-.78-.32L.344 8.82C.13 8.615 0 8.322 0 8v-.006c0-.322.132-.614.344-.82L7.094.315l.003.003C7.3.12 7.573 0 7.875 0 8.495 0 9 .512 9 1.143c0 .347-.152.657-.392.867z"/></symbol><symbol id="svg-products_slider_right" viewBox="0 0 9 16"><path fill="currentColor" d="M.392 2.01l5.894 5.988-5.97 6.066C.12 14.27 0 14.55 0 14.857 0 15.487.504 16 1.125 16c.303 0 .578-.122.78-.32l6.75-6.858C8.87 8.615 9 8.322 9 8v-.006c0-.322-.132-.614-.344-.82L1.906.315l-.003.002C1.7.12 1.427 0 1.125 0 .505 0 0 .512 0 1.143c0 .347.152.657.392.867z"/></symbol><symbol id="svg-quotes_after" viewBox="0 0 32.003 26.002"><path fill="currentColor" d="M18.26 13.063H24.8v1.76c0 3.922-1.34 5.824-4.103 5.824-.283 0-.51.23-.51.514v4.33c0 .282.227.512.51.512 3.483 0 6.27-1.107 8.287-3.292 2.004-2.17 3.02-5.956 3.02-11.252V.513c0-.285-.227-.513-.51-.513h-13.23c-.284 0-.512.228-.512.513V12.55c0 .284.228.513.51.513zM.51 13.063h6.538v1.76c0 3.922-1.343 5.824-4.103 5.824-.283 0-.513.23-.513.514v4.33c0 .282.23.512.513.512 3.454 0 6.234-1.107 8.262-3.29 2.02-2.17 3.045-5.958 3.045-11.254V.513c0-.285-.228-.513-.51-.513H.51C.228 0 0 .228 0 .513V12.55c0 .284.228.513.51.513z"/></symbol><symbol id="svg-quotes_before" viewBox="0 0 32.003 26.002"><path fill="currentColor" d="M13.742 12.94H7.206v-1.762c0-3.92 1.34-5.823 4.103-5.823.282 0 .51-.23.51-.513V.512c0-.282-.228-.512-.512-.512-3.483 0-6.27 1.107-8.287 3.292C1.018 5.462 0 9.248 0 14.544V25.49c0 .284.228.51.51.51h13.232c.283 0 .51-.227.51-.51V13.45c.002-.284-.226-.512-.51-.512zM31.493 12.94h-6.538v-1.762c0-3.92 1.343-5.823 4.103-5.823.284 0 .513-.23.513-.513V.512C29.57.23 29.34 0 29.06 0c-3.454 0-6.234 1.107-8.262 3.29-2.02 2.17-3.045 5.96-3.045 11.254V25.49c0 .284.23.51.51.51h13.233c.282 0 .51-.227.51-.51V13.45c0-.284-.228-.512-.51-.512z"/></symbol><symbol id="svg-shopping_cart" viewBox="0 0 22 18"><path fill="currentColor" d="M21.907 3.963h.002l-3.095 7.06c-.153.348-.483.595-.872.622l-8.91.61.515 1.51h9.7c1.14 0 2.064.948 2.064 2.117 0 1.17-.923 2.118-2.063 2.118-1.14 0-2.064-.948-2.064-2.118H7.563C7.563 17.052 6.64 18 5.5 18s-2.063-.948-2.063-2.118.923-2.117 2.063-2.117h1.864L3.394 2.118H1.03C.463 2.118 0 1.644 0 1.058 0 .475.462 0 1.03 0h3.095c.45 0 .83.298.97.71H5.1l.6 1.762h15.27c.568 0 1.03.473 1.03 1.058 0 .154-.034.3-.093.433zM6.42 4.59l1.907 5.59 8.862-.606 2.184-4.986H6.42z"/></symbol></svg>