<?xml version="1.0" encoding="UTF-8"?><!DOCTYPE svg PUBLIC "-//W3C//DTD SVG 1.1//EN" "http://www.w3.org/Graphics/SVG/1.1/DTD/svg11.dtd"><svg xmlns="http://www.w3.org/2000/svg"><symbol id="svg-shopping_cart" viewBox="0 0 22 18"><path fill="currentColor" d="M21.907 3.963h.002l-3.095 7.06c-.153.348-.483.595-.872.622l-8.91.61.515 1.51h9.7c1.14 0 2.064.948 2.064 2.117 0 1.17-.923 2.118-2.063 2.118-1.14 0-2.064-.948-2.064-2.118H7.563C7.563 17.052 6.64 18 5.5 18s-2.063-.948-2.063-2.118.923-2.117 2.063-2.117h1.864L3.394 2.118H1.03C.463 2.118 0 1.644 0 1.058 0 .475.462 0 1.03 0h3.095c.45 0 .83.298.97.71H5.1l.6 1.762h15.27c.568 0 1.03.473 1.03 1.058 0 .154-.034.3-.093.433zM6.42 4.59l1.907 5.59 8.862-.606 2.184-4.986H6.42z"/></symbol></svg>