<?xml version="1.0" encoding="UTF-8"?><!DOCTYPE svg PUBLIC "-//W3C//DTD SVG 1.1//EN" "http://www.w3.org/Graphics/SVG/1.1/DTD/svg11.dtd"><svg xmlns="http://www.w3.org/2000/svg"><symbol id="svg-logo" viewBox="0 0 144.778 43.98"><g fill="currentColor"><path d="M0 0l6.12 12.24H.9v1.08h5.76l1.02 1.98H.9v1.08h7.32l.96 1.98H.9v1.08h8.82l1.02 1.98H.9v1.08h10.38l.96 2.04H.36v19.44h1.08V31.74h6.12v-6.12h5.58c1.76 0 3.42-.34 4.98-1.02 1.56-.68 2.92-1.6 4.08-2.76 1.16-1.16 2.07-2.52 2.73-4.08.66-1.56.99-3.22.99-4.98 0-1.76-.33-3.41-.99-4.95-.66-1.54-1.57-2.89-2.73-4.05-1.16-1.16-2.52-2.08-4.08-2.76C16.56.34 14.9 0 13.14 0H0zm6.48 30.66H1.44v-5.04h5.04v5.04zM1.74 1.08h11.4c1.6 0 3.12.31 4.56.93 1.44.62 2.68 1.46 3.72 2.52s1.87 2.3 2.49 3.72c.62 1.42.93 2.93.93 4.53s-.3 3.1-.9 4.5c-.6 1.4-1.41 2.63-2.43 3.69-1.02 1.06-2.22 1.9-3.6 2.52-1.38.62-2.87.95-4.47.99L1.74 1.08zM42.12 25.62v-7.2h-3.06v-6.6h1.74v-1.08h-1.74V1.08h2.52V0h-6.12v1.08h2.52v9.66h-1.74v1.08h1.74v6.6h-3.06v7.2h3.06v6.6h-1.74v1.08h1.74v9.6h-2.52v1.08h6.12V42.9h-2.52v-9.6h1.74v-1.08h-1.74v-6.6h3.06zm-3.06-1.08v-1.98h1.98v1.98h-1.98zm1.98-5.04v1.98h-1.98V19.5h1.98zm-3.06 0v1.98H36V19.5h1.98zM36 24.54v-1.98h1.98v1.98H36zM64.5 25.44v-5.76l12.36-18.6h-1.32l-7.8 11.76H52.2V1.08h-1.08v42.9h1.08v-11.7h15.54l7.8 11.7h1.32L64.5 25.44zM52.2 13.92h14.82l-3.6 5.4v2.7h-1.98V19.5h-1.08v2.52h-1.98v-3.06H52.2v-5.04zm0 6.12h5.1v5.04h-5.1v-5.04zm0 11.16v-5.04h6.18V23.1h1.98v2.52h1.08V23.1h1.98v2.7l3.6 5.4H52.2zM98.638 1.08h11.7V0h-24.48v1.08h11.7V12.6l-3.3 3.3 6.12 6.12-2.82 2.82v19.14h1.08V25.32l3.3-3.3-6.12-6.12 2.82-2.88V1.08zM120.778 42.9V31.68h11.76V30.6h-11.76v-1.98h11.76v-1.08h-11.76v-1.98h11.76v-1.08h-11.76V22.5h11.76v-1.08h-11.76v-1.98h11.76v-1.08h-11.76v-1.98h11.76V15.3h-11.76v-1.98h11.76v-1.08h-5.1l-6.24-11.16h20.52V0h-22.38l6.9 12.24h-6.54v31.74h25.08V42.9h-24z"/></g></symbol><symbol id="svg-mail" viewBox="0 0 32 32"><path fill="currentColor" d="M0 4v24h32V4H0zm28.15 2l-12.152 9.72L3.85 6h24.3zM2 26V7.08L15.998 18.28l14-11.197V26H2z"/></symbol><symbol id="svg-menu" viewBox="0 0 24 14"><path fill="currentColor" d="M22.875 8.105H1.125C.505 8.105 0 7.61 0 7s.504-1.105 1.125-1.105h21.75C23.495 5.895 24 6.39 24 7c0 .61-.504 1.105-1.125 1.105zm0-5.894H1.125C.505 2.21 0 1.717 0 1.106 0 .495.504 0 1.125 0h21.75C23.495 0 24 .495 24 1.105s-.504 1.106-1.125 1.106zm-21.75 9.58h21.75c.62 0 1.125.494 1.125 1.104 0 .61-.504 1.106-1.125 1.106H1.125C.505 14 0 13.505 0 12.895s.504-1.106 1.125-1.106z"/></symbol><symbol id="svg-shopping_cart" viewBox="0 0 22 18"><path fill="currentColor" d="M21.907 3.963h.002l-3.095 7.06c-.153.348-.483.595-.872.622l-8.91.61.515 1.51h9.7c1.14 0 2.064.948 2.064 2.117 0 1.17-.923 2.118-2.063 2.118-1.14 0-2.064-.948-2.064-2.118H7.563C7.563 17.052 6.64 18 5.5 18s-2.063-.948-2.063-2.118.923-2.117 2.063-2.117h1.864L3.394 2.118H1.03C.463 2.118 0 1.644 0 1.058 0 .475.462 0 1.03 0h3.095c.45 0 .83.298.97.71H5.1l.6 1.762h15.27c.568 0 1.03.473 1.03 1.058 0 .154-.034.3-.093.433zM6.42 4.59l1.907 5.59 8.862-.606 2.184-4.986H6.42z"/></symbol></svg>